<?xml version="1.0" encoding="UTF-8"?>
<svg xmlns="http://www.w3.org/2000/svg" xmlns:xlink="http://www.w3.org/1999/xlink" viewBox="0 0 480 480" width="480px" height="480px">
<g id="surface89095801">
<path style=" stroke:none;fill-rule:nonzero;fill:rgb(1.176471%,60.784316%,89.803922%);fill-opacity:1;" d="M 240 8.199219 C 111.980469 8.199219 8.199219 111.980469 8.199219 240 C 8.199219 368.019531 111.980469 471.800781 240 471.800781 C 368.019531 471.800781 471.800781 368.019531 471.800781 240 C 471.800781 111.980469 368.019531 8.199219 240 8.199219 Z M 240 8.199219 "/>
<path style=" stroke:none;fill-rule:nonzero;fill:rgb(100%,100%,100%);fill-opacity:1;" d="M 271.378906 301.4375 L 331.367188 301.4375 L 340.785156 240.5 L 271.367188 240.5 L 271.367188 207.195312 C 271.367188 181.878906 279.636719 159.429688 303.316406 159.429688 L 341.371094 159.429688 L 341.371094 106.25 C 334.683594 105.347656 320.542969 103.371094 293.828125 103.371094 C 238.035156 103.371094 205.328125 132.835938 205.328125 199.960938 L 205.328125 240.5 L 147.976562 240.5 L 147.976562 301.4375 L 205.328125 301.4375 L 205.328125 468.933594 C 216.6875 470.640625 228.191406 471.800781 240 471.800781 C 250.675781 471.800781 261.09375 470.824219 271.378906 469.433594 Z M 271.378906 301.4375 "/>
</g>
</svg>
